<svg baseProfile="full" xmlns="http://www.w3.org/2000/svg" height="17" width="16"><path d="M12 16v-1h4v1h-4zm0-4h4v1h-4v-1zm0-3h4v1h-4V9zm-1-1c.023.977.044 7.567 0 8-.013.13-.542.624-.61.713-.292.287-.589.192-.736.066C8.527 15.859 5.285 13.601 5 13c-.059-.816 0-2.655 0-5C5 7.472 1.555 4.309.698 3.52.49 3.298 0 2.846 0 2.006 0 .783.49 0 1.6 0h12.8c.782 0 1.598.766 1.584 2.006.016.557-.214 1.033-.667 1.514C11.942 6.489 10.983 7.093 11 8zm3-7H2c-.645 0-1.111.204-1.111.789 0 .405.537 1.047.537 1.047s.973.816 2.247 1.908l.231.198c1.895 1.633 2.075 2.215 2.093 2.854-.011.297-.043 4.203.003 5.204-.001-.119 1.05.185 2 1l.594.605c.51.433 1.449.407 1.406.395-.035-.699 0-7.035 0-8 .247-.548.331-.658 1.341-1.477.003-.003 1.029-.827 1.395-1.126 1.417-1.159 1.853-1.565 1.853-1.565.299-.316.529-.749.522-1.043C15.118 1.264 14.391 1 14 1zM5.997 7.796a6.788 6.788 0 0 0 0 0z"/></svg>