<svg baseProfile="full" xmlns="http://www.w3.org/2000/svg" height="24" width="24"><path d="M23.596 10.063l-3.121-.51a8.796 8.796 0 0 0-.755-1.823l1.821-2.596a.481.481 0 0 0-.053-.617l-2.037-2.035a.482.482 0 0 0-.621-.05L16.272 4.27a8.727 8.727 0 0 0-1.836-.764L13.891.398A.482.482 0 0 0 13.417 0h-2.88a.481.481 0 0 0-.475.403l-.505 3.092a8.761 8.761 0 0 0-1.84.756l-2.55-1.822a.479.479 0 0 0-.62.051L2.51 4.515a.482.482 0 0 0-.054.617l1.795 2.567a8.87 8.87 0 0 0-.77 1.851l-3.079.513a.482.482 0 0 0-.402.475v2.879a.48.48 0 0 0 .397.474l3.079.546a8.75 8.75 0 0 0 .77 1.852L2.428 18.83a.482.482 0 0 0 .051.62l2.036 2.038a.483.483 0 0 0 .617.054l2.571-1.801a8.785 8.785 0 0 0 1.844.762l.515 3.095c.039.232.24.402.475.402h2.88a.482.482 0 0 0 .474-.397l.552-3.11a8.803 8.803 0 0 0 1.835-.768l2.59 1.816a.48.48 0 0 0 .617-.053l2.036-2.038a.483.483 0 0 0 .05-.621l-1.847-2.565c.319-.578.572-1.19.753-1.824l3.124-.548a.483.483 0 0 0 .399-.475v-2.879a.481.481 0 0 0-.404-.475zm-.693 2.838l-2.615.458c-.414.073-.75.375-.865.779a7.692 7.692 0 0 1-.659 1.596c-.205.371-.178.827.07 1.171l1.541 2.14-1.301 1.302-2.166-1.52a1.095 1.095 0 0 0-1.166-.059 7.682 7.682 0 0 1-1.606.672c-.401.116-.7.45-.773.861l-.462 2.602h-1.842l-.43-2.581a1.098 1.098 0 0 0-.781-.874 7.66 7.66 0 0 1-1.614-.667 1.097 1.097 0 0 0-1.16.062l-2.148 1.504-1.302-1.303 1.514-2.118c.246-.345.272-.801.066-1.171a7.68 7.68 0 0 1-.674-1.62 1.095 1.095 0 0 0-.863-.778l-2.57-.456V11.06l2.565-.428c.416-.069.756-.372.873-.777a7.76 7.76 0 0 1 .675-1.623c.204-.367.18-.818-.06-1.162L3.651 4.926l1.302-1.302L7.08 5.143a1.095 1.095 0 0 0 1.167.068 7.667 7.667 0 0 1 1.61-.661c.409-.116.714-.459.783-.878l.42-2.575h1.84l.455 2.599c.073.412.374.748.777.864a7.682 7.682 0 0 1 1.607.668 1.092 1.092 0 0 0 1.173-.068l2.133-1.533 1.301 1.3L18.822 7.1a1.095 1.095 0 0 0-.062 1.16 7.83 7.83 0 0 1 .662 1.598c.117.406.458.709.876.778l2.605.425v1.84zm-6.459-.926c0 .601-.119 1.184-.353 1.733a.548.548 0 0 1-1.009-.431 3.323 3.323 0 0 0-3.054-4.621 3.324 3.324 0 0 0-3.32 3.319 3.324 3.324 0 0 0 4.642 3.046.548.548 0 1 1 .437 1.006 4.421 4.421 0 0 1-6.175-4.052 4.421 4.421 0 0 1 4.416-4.416 4.421 4.421 0 0 1 4.416 4.416zm0 0"/></svg>