<svg baseProfile="full" xmlns="http://www.w3.org/2000/svg" height="21" width="22"><path d="M20.4 21H1.6C.716 21 0 20.324 0 19.491V1c0-.833.116-1 1-1h20c.883 0 1 .167 1 1v18.491c0 .833-.717 1.509-1.6 1.509zM21 1H1v19h20V1zm-2 11H3V3h16v9zm-7.458-3.275L8.398 5.779c-.024-.033-.016-.079-.046-.107a.775.775 0 0 0-.578-.199.773.773 0 0 0-.576.199c-.032.028-.022.074-.048.107L4.006 8.725a.69.69 0 0 0 0 1.019.806.806 0 0 0 1.087 0L8 7l2.457 2.744c.3.281.786.281 1.085 0a.688.688 0 0 0 0-1.019zm6.442-4.479c-.018-.023-.01-.054-.032-.076-.045-.042-.111-.033-.164-.063h-.001a.832.832 0 0 0-.17-.066h-.004C17.544 4.023 17.475 4 17.4 4c-.015 0-.026.006-.039.008-.019 0-.035-.011-.056-.008H14.2c-.442 0-.8.335-.8.75s.43.703 1.6.75h.448l-3.442 3.225a.69.69 0 0 0 0 1.019.805.805 0 0 0 1.086 0L16.6 6.456v1.289c0 .418.358.754.8.754.441 0 .8-.336.8-.754V4.75a.677.677 0 0 0-.191-.468c-.009-.012-.014-.025-.025-.036zM13 15H3v-1h10v1zm5 3H3v-1h15v1z"/></svg>