<svg baseProfile="full" xmlns="http://www.w3.org/2000/svg" height="25" width="27"><path d="M4.968 13.75a.697.697 0 1 0 1.393-.001.697.697 0 0 0-1.393.001zm1.072-3.515a1.092 1.092 0 1 0 2.184-.002 1.092 1.092 0 0 0-2.184.002zm4.035-2.861a1.41 1.41 0 1 0 2.818 0 1.41 1.41 0 0 0-2.818 0zm5.331 0a1.77 1.77 0 1 0 3.538 0 1.77 1.77 0 0 0-3.538 0zm10.738-1.723l-.018-.016a.623.623 0 0 0-.878.062L15.87 16.489l-1.185 2.33 2.127-1.48 9.394-10.811a.621.621 0 0 0-.062-.877zm-1.606 6.003a.635.635 0 0 0-.633.584h-.001s-.879 4.656-4.71 7.142c-4.132 2.682-8.862 1.475-9.741-.074-.483-.852-1.218-2.287-1.637-2.635-1.124-.935-3.967.36-4.564-1.057-1.109-2.633 1.509-9.458 8-11.148 4.542-1.203 8.409.246 10.349 1.861a.615.615 0 0 0 .763-.966c-.817-.686-5.97-4.625-13.168-1.392C1.337 7.499.84 14.856 2.481 16.695c1.642 1.84 4.044.385 4.576.995.34.389.783 1.423 1.364 2.361.842 1.359 5.05 4.213 11.47.406 3.852-2.284 5.231-7.544 5.281-8.12h-.002a.634.634 0 0 0-.632-.683zm0 0"/></svg>