<svg baseProfile="full" xmlns="http://www.w3.org/2000/svg" height="15" width="19"><path d="M17.354 14.992c-1.239-2.895-4.388-5.629-7.712-5.632v3.111c0 .461-.003.92 0 1.275.004.462-.961.021-1.355-.235L.572 8.512A1.238 1.238 0 0 1 0 7.473c0-.418.214-.808.572-1.04l7.715-4.998c.394-.255 1.392-.733 1.355-.22-.002.041 0 .798 0 1.259v3.127c4.261 0 8.418 3.356 8.358 6.87-.015.878-.123 1.717-.646 2.521zM9 6.228V3.721 2.684s-.584-.029-.907.179L2.057 6.737c-.294.19-.772.402-.772.744 0 .341.478.69.772.879l6.036 3.62c.323.21.907.219.907.219v-.959-2.506c5.684-.02 8.37 4.808 8.317 5.063C17.316 8.118 12.858 6.228 9 6.228z"/></svg>