<svg baseProfile="full" xmlns="http://www.w3.org/2000/svg" height="34" width="34"><path d="M17 34C7.611 34 0 26.389 0 17S7.611 0 17 0s17 7.611 17 17-7.611 17-17 17zm0-32.937C8.198 1.063 1.063 8.198 1.063 17S8.198 32.938 17 32.938 32.938 25.802 32.938 17 25.802 1.063 17 1.063zm12.122 24.642v.866H27.65l-3.925-4.531h-2.886l1.068 3.665h.923v.866h-1.558l-1.876-4.531h-6.033l.837 3.665h.866v.866h-1.501l-1.616-4.531H9.871l-2.655 3.665h.837v.693H5.455l3.146-7.36-3.175-3.896-.981-.405-.144-1.154 1.241.317.23.895 3.204 3.175.722-1.587 7.389-.809 4.704-5.368 4.589-.317 2.454 7.59-1.444 1.703-1.991.087 2.857 6.436h.866zm-6.853-20.17h.658v2.279c0 .117-.023.22-.07.31-.047.091-.213.141-.5.152a6.917 6.917 0 0 0-.088-.308v.994h-.528V6.049h-.206v2.26h-.429V5.535h.635v-.467h-.738v-.513h2.045v.513h-.779v.467zm0 2.221c.094 0 .156-.013.185-.039.029-.026.043-.074.043-.146V6.049h-.228v1.707zm-1.628.577a2.68 2.68 0 0 1-.399.681 7.079 7.079 0 0 0-.476-.35c.473-.542.688-1.231.644-2.069V4.387h.495v2.246c0 .378-.018.693-.055.945a3.166 3.166 0 0 1-.209.755zm-.871-3.321h.453v2.592h-.453V5.012zm-.14 2.284c0 .28-.01.553-.032.818-.022.265-.064.452-.128.56a.459.459 0 0 1-.268.216c-.116.036-.312.051-.589.044a8.114 8.114 0 0 0-.103-.607c.132.025.241.038.327.038a.264.264 0 0 0 .146-.038.203.203 0 0 0 .082-.107c.018-.047.033-.184.046-.413.013-.229.019-.441.017-.637a3.529 3.529 0 0 1-.483.644 5.227 5.227 0 0 0-.219-.57c.275-.266.491-.558.646-.878A4.223 4.223 0 0 0 19 5.958a6.84 6.84 0 0 1-.35.352 4.784 4.784 0 0 0-.234-.527c.145-.137.281-.275.407-.413a3.109 3.109 0 0 0-.425-.755l.378-.247c.152.165.285.356.397.574a4.47 4.47 0 0 0 .35-.537l.42.276c-.171.277-.354.546-.548.808.157.502.235 1.105.235 1.807zm-7.402 1.367a33.24 33.24 0 0 0-1.55.234l-.112-.659A51.024 51.024 0 0 0 12.28 8l-.014.327h1.111V5.544h-.981v-.625h2.624v.625h-.971v2.783h1.098v.626h-2.919v-.29zm-.565-2.708c.103-.174.204-.356.304-.546l.597.294a12.36 12.36 0 0 1-1.05 1.531c.277-.031.546-.065.808-.102a7.64 7.64 0 0 0-.056.616c-.754.062-1.224.128-1.41.196l-.253-.625c.156-.05.389-.315.698-.794-.259.017-.45.04-.571.07l-.192-.565c.174-.131.458-.629.85-1.494l.644.261a18.38 18.38 0 0 1-.747 1.172 8.82 8.82 0 0 0 .378-.014z"/></svg>