<svg baseProfile="full" xmlns="http://www.w3.org/2000/svg" height="19" width="25"><path d="M23 18H2c-1.006 0-1 .006-1-1V2C1 .994.994 1 2 1h21c1.006 0 1-.006 1 1v15c0 1.006.006 1-1 1zm0-2V3.275l-6.532 6.532a.546.546 0 0 1 .203.125l6.267 6.268c.026-.068.062-.138.062-.2zM3 17h19c.041 0 .088-.029.132-.041l-6.244-6.244c-.064-.064-.07-.151-.096-.232l-2.689 2.689c-.024.09-.035.186-.106.256a.546.546 0 0 1-.773 0l-2.969-2.969-6.473 6.474c.074.03.15.067.218.067zm-1-1c0 .04.028.087.039.13l6.443-6.443L2 3.204V16zM22 2H3c-.142 0-.303.087-.458.201l9.99 9.99 9.912-9.911c.018-.019.042-.026.062-.042C22.337 2.104 22.156 2 22 2z"/></svg>