<svg baseProfile="full" xmlns="http://www.w3.org/2000/svg" height="23" width="23"><path d="M10.027 19.983v-.131c0-1.291-.001-2.583.001-3.874a.578.578 0 0 1 .038-.188c.095-.245.198-.488.293-.733.102-.265.536-.778.641-1.057h11c.142.548.76 1.282.964 1.8a.394.394 0 0 1 .034.145c.002 1.313.001 2.627.001 3.94 0 .028-.003.056-.005.094L22 20v2h-2v-2h-7v2h-2v-2c-.164 0-.811-.017-.973-.017zM14 19c.041.002-.035 0 0 0 1.586 0 3.414-.003 5 0 .089 0-.019-.43-.02-.519-.003-.572-.005-1.144.001-1.715.001-.112.127.234.019.234-1.572.003-3.428 0-5 0 0 .66-.005.936-.005 1.59L14 19zm-2.161-1.135a.877.877 0 0 0 .87-.874.882.882 0 0 0-.872-.885.88.88 0 0 0 .002 1.759zm9.152 0a.874.874 0 0 0 .873-.87.88.88 0 0 0-.867-.889.883.883 0 0 0-.875.883c.001.48.392.875.869.876zM8 4V2c.001-.914.24-1.832 1.131-1.987.06-.01.121-.012.182-.012h2.385C12.513.002 12.868.188 13 1c.021.128-.001.871 0 1 .003.676 0 1.324 0 2 0 0 1.269-.011 2.161-.004 1.182.008.984.8-.161 1.004-.067.012.067 0 0 0-3.076.001-5.924.002-9 0-1.194-.001-1.338-.989-.119-1.004A61.057 61.057 0 0 1 8 4zm2.522-.81a1.057 1.057 0 0 0 1.046-1.046 1.06 1.06 0 0 0-1.046-1.059 1.053 1.053 0 0 0 0 2.105zM9 21v1H3c-1.307-.001-2.072-.682-2-2-.041.756-.001-5.662.001-16.282 0-1.326.957-2.467 2.251-2.688.092-.016.185-.027.278-.027C4.135 1 4.74.997 5.345 1.001c.345.003.678.251.666.604C5.996 2.078 4.895 2.001 5 2c-.548.003-1.452-.001-2 0-.666.001-.987 1.327-1 2 0 .014 0-.015 0 0v15c0 1.046 1.094 1.969 2 2 .906.031 3.063 0 5 0 .047.448 0 0 0 0zm2-7c.109-.507-.106-.506 0-1 .118-.551-.113-1.449 0-2 .02-.098-.106-.002 0 0 .461.007 1.538 0 2 0 2.911 0 6.088.003 9 0 .097 0 .008-.098 0 0-.096 1.094.145 2.016.365 3.047.004.017.005.034.009.063h-.272c-.265 0-.53-.003-.795.002-.076.001-.102-.023-.118-.099-.13-.625-.062-1.387-.189-2.013-.025-.12-.277-.013-.395-.013-2.743.004-5.862.017-8.605.013-.122 0 .024.884 0 1-.126.619.127.381 0 1-.02.096-.258.113-.348.112-.311-.005-.341-.112-.652-.112zm9-5h-1V3c0-.753-.254-.999-1-1-.552 0-1.449.006-2 0-.965-.01-.728-.996 0-1 .605-.003 1.395-.016 2 0 1.373.035 1.995.598 2 2 .007 1.978 0 4.021 0 6-.002.658 0 0 0 0zm-5-1a3555.557 3555.557 0 0 1-9 0c-1.232-.002-1.294-.974 0-1-1.729.035 10 0 10 0-.052.149.589 1.165-1 1zm-4.464 2.505c-.382.336-.154.147-.536.495.004-.004-2.338.004-1 0-1.317.004-1.683.002-3 0-1.232-.003-1.294-.974 0-1-1.729.035 5 0 5 0-.06.171.004.095-.464.505z"/></svg>