<svg baseProfile="full" xmlns="http://www.w3.org/2000/svg" height="16" width="15"><path d="M13.065 16H1.935C.816 16 0 15.198 0 14.061V1.939C0 .802.816 0 1.935 0h.452c.246 0 .484.239.484.485a.514.514 0 0 1-.484.484h-.452c-.628 0-.967.325-.967.97v12.122c0 .643.34.969.967.969h11.13c.628 0 .967-.324.967-.969V1.939c0-.643-.341-.97-.967-.97h-.452a.514.514 0 0 1-.484-.484c0-.246.238-.485.484-.485h.452C14.184 0 15 .802 15 1.939v12.122C15 15.198 14.184 16 13.065 16zM3 10h9v1H3v-1zm0-3h9v1H3V7zm0-3h9v1H3V4zM9.677.969H5.323c-.397 0-.481-.087-.484-.484-.004-.4.083-.482.484-.485h4.354c.397 0 .481.087.484.485.004.399-.083.481-.484.484z"/></svg>