<svg class="icon" viewBox="0 0 1408 1024" xmlns="http://www.w3.org/2000/svg" width="275" height="200"><defs><style/></defs><path d="M1024 320a1 1 0 1 0 128 0 1 1 0 1 0-128 0zM369.792 96C377.664 96 384 90.304 384 83.2V44.8c0-7.04-6.336-12.8-14.208-12.8h-99.584C262.336 32 256 37.696 256 44.8v38.4c0 7.04 6.336 12.8 14.208 12.8h99.584zM736 832c159.04 0 288-128.96 288-288S895.04 256 736 256 448 384.96 448 544s128.96 288 288 288zm0-512c123.712 0 224 100.288 224 224S859.712 768 736 768 512 667.712 512 544s100.288-224 224-224z"/><path d="M0 256v640c0 128 128 128 128 128h1152s128 0 128-128V256c0-128-128-128-128-128h-243.2L968.832 14.784C963.968 6.592 952.192 0 942.976 0H529.024c-9.408 0-21.12 6.848-25.856 14.784L435.2 128H128S0 128 0 256zm478.336-64l71.296-128h366.592l81.088 128h281.984S1344 192 1344 257.152v637.632C1344 960 1279.296 960 1279.296 960H128.704S64 960 64 894.784V257.152C64 192 128.704 192 128.704 192h349.632z"/></svg>