<svg baseProfile="full" xmlns="http://www.w3.org/2000/svg" height="26" width="28"><path d="M14.132 20.512c.141 0 .285-.008.43-.023 1.388-.15 2.566-1.022 3.001-2.225.033-.09-.014-.186-.11-.225a.22.22 0 0 0-.263.075c-.005.008-.556.809-2.703 1.069a7.772 7.772 0 0 1-.931.059c-1.504 0-2.174-.51-2.18-.515a.225.225 0 0 0-.269-.003.173.173 0 0 0-.043.24c.655.954 1.83 1.548 3.068 1.548zM25.675 8.547l-.054.003C24.363 3.653 19.557 0 13.794 0 7.873 0 2.956 3.855 1.866 8.955.806 9.126 0 9.964 0 10.977v4.053c0 1.137 1.013 2.058 2.264 2.058.706 0 1.329-.3 1.743-.76 1.001 2.381 3.039 4.301 5.619 5.314.006-.012.055-.097.113-.165.041-.048.087-.086.126-.086.04 0 .077.013.109.033-.597-.4-2.753-2.454-3.22-5.321-.205-1.262.846-2.501 2.07-2.706 1.965-.329 3.92-.704 5.885-1.026 1.249-.205 2.103-.822 2.625-1.848.122-.239.299-.724.38-1.424a.237.237 0 0 1 .238-.184.26.26 0 0 1 .196.091l.054-.03c.774 1.011 2.31 3.25 2.531 5.611.253 2.7.112 4.548-2.186 6.44l-.009.008a.158.158 0 0 0-.051.115c0 .058.034.108.084.138l.057.024c.016.003.03.007.046.007.015 0 .029-.004.043-.007.033-.016.064-.034.096-.049 2.323-1.151 4.106-3.074 4.929-5.386.334.446.856.766 1.462.878-.972 3.978-4.918 6.468-9.806 6.846-.293-.653-1.015-1.117-1.862-1.117-1.106 0-2.002.787-2.002 1.758S12.43 26 13.536 26c.892 0 1.639-.515 1.898-1.223 5.659-.414 10.195-3.438 11.142-8.138.837-.314 1.424-1.052 1.424-1.914v-4.101c0-1.147-1.041-2.077-2.325-2.077zm-2.087 1.179c-1.476-3.596-5.3-6.164-9.799-6.164-4.48 0-8.291 2.547-9.78 6.119-.074-.082-.161-.152-.247-.222.844-4.353 5.009-7.662 10.032-7.662 4.999 0 9.151 3.276 10.022 7.599a2 2 0 0 0-.228.33zM9.626 21.642c-.001.002-.001.002 0 0zm0 0"/></svg>