<svg baseProfile="full" xmlns="http://www.w3.org/2000/svg" height="23" width="21"><path d="M4.459 4.809C4.024 4.809 4 5.565 4 6v12c0 1.673 1.345 2 3 2h8v-1H7c-.601 0-2-.331-2-1V6c-.141.519.176-1.285-.541-1.191m11.83 15.86a.715.715 0 0 0-.666.462l-.032.065c-.507 1.031-.872.883-1.253.852a4.36 4.36 0 0 0-.307-.014H3.159C2.517 22.034 1 21.65 1 21V6c0-.59 1.332-1.245 1.959-1.359l.184-.051v-.003a.785.785 0 0 0 .018-1.482L3.173 3l-.255.051h-.026a.39.39 0 0 0-.122.021C1.243 3.229 0 4.639 0 6.212v14.201C0 22.085 1.347 23 3 23h11c1.512 0 2.591-.016 2.927-1.255a.71.71 0 0 0 .092-.341.733.733 0 0 0-.73-.735m-7.256-9.674L16 11c.845 0 .845-1 0-1H9c-1.157 0-1.124.995.033.995M15 0H7C5.435 0 3.9.576 3.719 2.086c.198-.872-.501.908.771.908a.794.794 0 0 0 .785-.708s.081-1.32 1.2-1.32L14 1c-.008 1.627 0 3 0 3 0 1.685 1.321 3 3 3h3v11c.003.473-.709.706-1 1-.278.28-.676.062-1.089.062h-.001l-.23.003v.05a.782.782 0 0 0-.52.733c0 .35.237.651.566.745l.007.032.207.005c.049 0 .086-.01.093-.016C19.614 20.501 21 19.019 21 17.442V6l-6-6zm4 6h-2c-.605 0-2-1.301-2-2V2l4 4zM9 14h7c.528 0 .597.079.597-.431S16.528 13 16 13H9c-1.062 0-1.062 1 0 1"/></svg>