<svg baseProfile="full" xmlns="http://www.w3.org/2000/svg" height="25" width="24"><path d="M23.101 25H10.343a.933.933 0 0 1-.14-.011C9.92 24.943 3.717 23.557 1 17c-.213-.514.076-1.577 0-3-.032-.603.496-1.039 1.071-1.039.743 0 1.552.457 2.546 1.44.539.533.932 1.061 1.312 1.573C7.146 17.613 8.862 19.606 15 20c-.295-.434-1.224-1.411-1.366-1.655-.309-.534-.429-1.423-.058-2.088.287-.516.818-.812 1.456-.812.757 0 1.741.716 2.968 1.555.005 0 2.792 1.293 5.281 1.815a.915.915 0 0 1 .719.9v4.366a.91.91 0 0 1-.899.919zM23 20c-2.556-.691-5.886-1.934-6-2-1.082-.737-1.605-.663-1.848-.705.007.046.019.09.033.119.27.466 1.314 1.954 1.693 2.488.201.284.01.624.067.969-.378 0-.562.145-.945.129-6.943-.081-9.457-1.924-11-4-.354-.478-.559-.564-1-1-.697-.688-1.854-1.956-2-2-.165.345-.124 1.657 0 2 2.235 5.276 7.363 7.874 8 8h13v-4zM10 5s1.657 2.195 2.509 3.335C13.413 7.14 15 5 15 5l1.041-.001L13 9h3v1h-3v2h3v1h-3v2h-1v-2H9v-1h3v-2H9V9h3L9 5h1zm9.814 11.173c.537 0-1.55.007-.814-1.173.839-1.347 2-3.396 2-5 0-4.638-4.464-9-9-9-4.538 0-9 4.362-9 9v1c-.497 0-1-.493-1-1C2 4.349 6.583 0 12.112 0 17.64 0 22 4.349 22 10c0 1.955-.977 4.358-2 6-.172.275.111.173-.186.173z"/></svg>