<svg baseProfile="full" xmlns="http://www.w3.org/2000/svg" height="24" width="24"><path d="M10.209 21.117c0 1.149-.751 2.211-1.909 2.514a2.575 2.575 0 0 1-3.153-1.842 2.592 2.592 0 0 1 .708-2.559L2.359 6.027 0 4.661l.858-1.496L3.818 4.9l3.603 13.637a2.529 2.529 0 0 1 2.166.953l13.963-3.794.45 1.67-13.791 3.751zm11.989-6.851L9.866 17.604c-.45.13-.922-.151-1.051-.607L5.512 4.531a.871.871 0 0 1 .601-1.062L18.445.13c.45-.13.922.152 1.051.607l3.303 12.466c.129.477-.15.954-.601 1.063zm-8.75-6.591l.45 1.669L18.874 8l-.45-1.669-4.976 1.344zm6.305 3.664l-.45-1.67-8.279 2.233.45 1.67 8.279-2.233z"/></svg>