<svg baseProfile="full" xmlns="http://www.w3.org/2000/svg" height="22" width="25"><path d="M24.158 18.467v-.003L13.973.822h-.002C13.843.352 13.261 0 12.562 0c-.704 0-1.285.361-1.407.835L.73 18.891l.008.012c-.238.236-.192.798.131 1.322.325.534.815.832 1.132.709l.012.019h21.102l.012-.027c.352.054.786-.256 1.057-.807.316-.634.296-1.349-.026-1.652zM11.085 6.369a1.415 1.415 0 0 1 2.828 0v7.288a1.414 1.414 0 1 1-2.828 0V6.369zm1.414 12.721a1.539 1.539 0 0 1-1.538-1.54c0-.849.689-1.535 1.538-1.535.849 0 1.538.686 1.538 1.535a1.54 1.54 0 0 1-1.538 1.54zm0 0"/></svg>