<svg baseProfile="full" xmlns="http://www.w3.org/2000/svg" height="27" width="25"><path d="M24.84 17.79a5.9 5.9 0 0 0-.978-1.007v-6.317l-10.94 7.904v7.169l2.212-1.598c.147.299.315.584.506.853l-2.924 2.113a.471.471 0 0 1-.281.093.502.502 0 0 1-.226-.055c-.024-.014-.042-.031-.064-.048l-.02.01L.207 18.298 0 17.893V9.504l.033-.017v-.006a.502.502 0 0 1 .2-.408l6.5-4.774a.493.493 0 0 1 .154-.072l1.477-1.088L5.271.905a.502.502 0 0 1-.181-.56.49.49 0 0 1 .474-.341l6.77.137a.479.479 0 0 1 .273.092l11.918 8.609c.082.06.131.147.162.239.093.1.134.221.128.356.003.024.025.041.025.066v8.287zM.976 10.467L1 18v-6l10.935 7.953L12 26v-6l-.065-.047-.017-1.583L.976 10.467zm11.188-9.335l-5.037-.104 10.505 7.59 5.037.102-10.505-7.588zm8.134 15.437c2.597 0 4.702 2.145 4.702 4.791 0 2.646-2.105 4.791-4.702 4.791s-4.703-2.145-4.703-4.791c0-2.646 2.106-4.791 4.703-4.791zM19 22v1h4v-1h-3v-3h-1v3z"/></svg>