<svg baseProfile="full" xmlns="http://www.w3.org/2000/svg" height="23" width="21"><path d="M20.328 21.621l-.707.707-2.121-2.121-2.121 2.121-.707-.707 2.121-2.121-2.121-2.121.707-.707 2.121 2.121 2.121-2.121.707.707-2.121 2.121 2.121 2.121zM11 19.5c0 .886.18 1.73.501 2.5H2c-1.768-.031-2-.67-2-2V3C0 1.232.888.969 2 1h3c0 1.267.733 2 2 2h6c1.268 0 2-.733 2-2h3c1.109 0 2 .388 2 2v10.501a6.5 6.5 0 0 0-9 5.999zM4 16h6v-1H4v1zm12-9H4v1h12V7zm0 4H4v1h12v-1zm-4-9H8c-.634 0-1-.366-1-1s.366-1 1-1h4c.634 0 1 .366 1 1s-.366 1-1 1z"/></svg>