<svg baseProfile="full" xmlns="http://www.w3.org/2000/svg" height="22" width="27"><path d="M6.542.6a3.927 3.927 0 0 1 3.925 3.93c0 2.17-1.757 3.93-3.925 3.93a3.928 3.928 0 0 1-3.925-3.93A3.927 3.927 0 0 1 6.542.6zm1.957 3.558V2.653l-2.52 2.249-1.394-1.249v1.505l1.394 1.249 2.52-2.249zm15.625 9.694c-.143.007-.311.012-.502.012h-4.397c-.111 0-.223-.056-.334-.168-.112-.112-.168-.207-.168-.287v-.024a112.69 112.69 0 0 1-.024-2.13V9.078a.7.7 0 0 1 .216-.49.692.692 0 0 1 .525-.227c.016 0 .136-.008.359-.024.223-.016.498-.004.824.036.327.039.673.127 1.04.263.366.135.709.355 1.027.658.494.51.845 1.128 1.052 1.854a40.5 40.5 0 0 1 .573 2.261c0 .032.004.056.012.072.008.016.012.04.012.071 0 .192-.071.292-.215.3zm1.876.287a15.932 15.932 0 0 0-.633-2.764 9.317 9.317 0 0 0-1.363-2.655 4.918 4.918 0 0 0-1.242-1.197 7.428 7.428 0 0 0-1.577-.813 8.556 8.556 0 0 0-1.697-.443 6.886 6.886 0 0 0-1.649-.06c-.175.016-.322.14-.442.371-.119.231-.179.435-.179.61V18.72c0 .288.103.535.311.742.207.207.453.311.74.311h.43c0-.399.076-.778.228-1.136a3.03 3.03 0 0 1 .621-.945c.263-.272.569-.487.92-.646.35-.16.733-.24 1.147-.24.414 0 .808.056 1.183.168.374.111.701.287.979.526.279.239.502.55.67.933.167.383.25.846.25 1.388h.98c.096 0 .172-.048.227-.144.056-.095.104-.211.143-.347.04-.133.068-.269.084-.406.016-.136.024-.252.024-.347 0-.495.004-1.133.012-1.914A17.94 17.94 0 0 0 26 14.139zm-4.266 4.175c.414 0 .773.151 1.076.454.302.303.454.662.454 1.077 0 .43-.152.797-.454 1.1a1.47 1.47 0 0 1-1.076.455c-.43 0-.792-.152-1.087-.455a1.52 1.52 0 0 1-.442-1.1c0-.415.147-.774.442-1.077a1.457 1.457 0 0 1 1.087-.454zm-16.44-.024c-.431 0-.793.151-1.088.454-.294.303-.442.67-.442 1.101 0 .414.148.773.442 1.077.295.303.657.454 1.088.454.43 0 .792-.151 1.087-.454.295-.304.442-.662.442-1.077a1.52 1.52 0 0 0-.442-1.101 1.457 1.457 0 0 0-1.087-.454zm6.105-15.002c.118.423.178.863.178 1.319 0 .697-.132 1.348-.397 1.954a5.134 5.134 0 0 1-1.078 1.59c-.453.454-.982.81-1.588 1.068a4.878 4.878 0 0 1-1.928.386 4.937 4.937 0 0 1-1.951-.386 4.995 4.995 0 0 1-1.589-1.068 5.148 5.148 0 0 1-1.077-1.59 4.821 4.821 0 0 1-.392-2.18 3.401 3.401 0 0 0-.537.917 3.054 3.054 0 0 0-.215 1.125v12.441c0 .303.087.534.263.694a.957.957 0 0 0 .669.239h.55c0-1.021.259-1.782.776-2.285.518-.502 1.263-.754 2.234-.754 1.02 0 1.769.272 2.247.814.478.542.717 1.284.717 2.225h6.523a.922.922 0 0 0 .658-.263.889.889 0 0 0 .274-.67l-.047-15.576h-4.29z"/></svg>