<svg baseProfile="full" xmlns="http://www.w3.org/2000/svg" height="25" width="31"><path d="M15.5 24.089c-15.5 0-10.996-5.695-10.996-5.695s-.795-2.649 1.126-6.622c2.12-4.437 5.035-4.437 5.035-4.437s2.053 1.324 4.835 1.324 4.902-1.324 4.902-1.324 2.848.066 4.968 4.37c1.987 4.106 1.126 6.622 1.126 6.622S31 24.089 15.5 24.089zm-.066-13.509c-3.113 0-5.631 2.516-5.631 5.562 0 3.046 2.518 5.563 5.631 5.563 3.113 0 5.63-2.517 5.63-5.563s-2.517-5.562-5.63-5.562zm1.413 5.304c-.342.286-.554.509-.635.669a1.079 1.079 0 0 0 .01 1.02h-1.324a1.872 1.872 0 0 1-.117-.654c0-.55.261-1.045.782-1.484.322-.274.54-.501.654-.684.114-.182.171-.379.171-.591a.735.735 0 0 0-.244-.568c-.163-.149-.373-.223-.63-.223-.603 0-1.162.232-1.68.694v-1.514c.544-.325 1.162-.488 1.855-.488.704 0 1.259.163 1.666.488.406.326.61.789.61 1.392 0 .361-.08.688-.239.981-.16.293-.453.614-.879.962zm-1.211 2.31c.25 0 .466.079.647.236.18.158.271.358.271.599a.794.794 0 0 1-.254.598.854.854 0 0 1-.611.241c-.302 0-.543-.083-.722-.249a.78.78 0 0 1-.269-.59c0-.241.091-.441.274-.599a.981.981 0 0 1 .664-.236zM15.5 7.467c-2.981 0-5.299-1.92-5.299-1.92S7.617 3.229 8.942 2.236c1.325-.994 3.312.331 3.312.331S13.711.911 15.5.911c1.788 0 3.312 1.656 3.312 1.656s1.987-1.325 3.312-.331c1.325.993-1.259 3.311-1.259 3.311s-2.384 1.92-5.365 1.92z"/></svg>