<svg baseProfile="full" xmlns="http://www.w3.org/2000/svg" height="22" width="21"><path d="M13.37 13.038C15.387 11.875 17 9.497 17 7c0-3.718-3.284-7-7-7S3 3.282 3 7c0 2.498 1.679 4.88 3.699 6.041-3.267 1.157-5.758 3.967-6.36 7.525a.749.749 0 0 0 .62.862.753.753 0 0 0 .872-.614C2.285 18.132 3.672 16.137 6 15l3.285 1.977v4.461h1.495v-4.445L14 15c2.265 1.153 4.553 3.365 5 6 .061.365-.368.438-.007.438a.785.785 0 0 0 .127-.01c.413-.069.95-.021.88-.428-.604-3.561-3.357-6.806-6.63-7.962zM4 7C4 4.113 7.147.989 10.032.989 12.918.989 16 4.113 16 7s-3.114 6-6 6-6-3.113-6-6zm6 9l-1.95-1.779c.641-.154 1.301-.263 1.99-.263.728 0 1.425.121 2.101.294L10 16z"/></svg>