<svg baseProfile="full" xmlns="http://www.w3.org/2000/svg" height="24" width="18"><path d="M9 13.733c-1.207 0-2.188.992-2.188 2.211 0 .485.152.945.441 1.331l.019.024c.541.637.58 1.091.583 1.133v1.262c0 .639.513 1.158 1.145 1.158.631 0 1.145-.52 1.145-1.158v-1.286c0-.015 0-.029-.002-.043 0-.002.003-.001.003-.002a.93.93 0 0 1 .042-.181c.059-.18.197-.476.523-.861l.014-.017c.303-.391.463-.862.463-1.36 0-1.219-.981-2.211-2.188-2.211zm.951 2.947c-.765.909-.803 1.559-.796 1.741v1.273a.156.156 0 0 1-.155.157.156.156 0 0 1-.155-.157v-1.268c0-.094-.026-.835-.81-1.765a1.203 1.203 0 0 1-.233-.717c0-.667.537-1.211 1.198-1.211.661 0 1.198.544 1.198 1.211 0 .269-.086.524-.247.736zM16 10h-1s.012-.221 0-2c-.012-3.905-.874-6.938-5.906-7C3.529.931 2.906 4.092 3 8v2H2c-.931 0-2 .258-2 1.199v11.094A1.7 1.7 0 0 0 1.689 24h9.319l.045-.002h5.214A1.7 1.7 0 0 0 18 22.293V11.199C18 10.258 16.931 10 16 10zM2 11h14a1 1 0 0 1 1 1v10a1 1 0 0 1-1 1H2a1 1 0 0 1-1-1V12a1 1 0 0 1 1-1zm2-1s-.031-.063 0-2c.031-1.938-.558-5.984 5-6 4.911-.015 4.953 4.016 5 6v2H3m6 3.733c-1.207 0-2.188.992-2.188 2.211 0 .485.152.945.441 1.331l.019.024c.541.637.58 1.091.583 1.133v1.262c0 .639.513 1.158 1.145 1.158.631 0 1.145-.52 1.145-1.158v-1.286c0-.015 0-.029-.002-.043 0-.002.003-.001.003-.002a.93.93 0 0 1 .042-.181c.059-.18.197-.476.523-.861l.014-.017c.303-.391.463-.862.463-1.36 0-1.219-.981-2.211-2.188-2.211zm.951 2.947c-.765.909-.803 1.559-.796 1.741v1.273a.156.156 0 0 1-.155.157.156.156 0 0 1-.155-.157v-1.268c0-.094-.026-.835-.81-1.765a1.203 1.203 0 0 1-.233-.717c0-.667.537-1.211 1.198-1.211.661 0 1.198.544 1.198 1.211 0 .269-.086.524-.247.736z"/></svg>