<svg baseProfile="full" xmlns="http://www.w3.org/2000/svg" height="24" width="18"><path d="M9 22c-1.112 0-2-.914-2-2 0-1.086.888-2 2-2s2 .914 2 2c0 1.086-.888 2-2 2zm0-3a1 1 0 1 0 0 2 1 1 0 0 0 0-2zm-7 5c-1.466 0-2-.572-2-2V2C0 .569.537 0 2 0h14c1.466 0 2 .572 2 2v20c0 1.431-.537 2-2 2m0-1c.916 0 1-.105 1-1V2c0-.895-.084-1-1-1H2c-.917 0-1 .105-1 1v20c0 .895.083 1 1 1h14zM11 3H7c-.67 0-.67-1 0-1h4c.672 0 .672 1 0 1zm2 2c.262 0 1 .741 1 1v9c0 .256-.735 1-1 1H5c-.262 0-1-.741-1-1V6c0-.256.735-1 1-1l9.196-.047M4 4c-.812 0-1 .208-1 1v10c0 .792.188 2 1 2h10c.811 0 1-1.208 1-2V6c-.094-1.105-.157-2-2-2H4z"/></svg>